<?xml version="1.0" standalone="no"?>
<!DOCTYPE svg PUBLIC "-//W3C//DTD SVG 20010904//EN"
 "http://www.w3.org/TR/2001/REC-SVG-20010904/DTD/svg10.dtd">
<svg version="1.0" xmlns="http://www.w3.org/2000/svg"
 width="272.000000pt" height="198.000000pt" viewBox="0 0 272.000000 198.000000"
 preserveAspectRatio="xMidYMid meet">
<metadata>
Created by potrace 1.16, written by Peter Selinger 2001-2019
</metadata>
<g transform="translate(0.000000,198.000000) scale(0.100000,-0.100000)"
fill="#000000" stroke="none">
<path d="M0 990 l0 -990 1360 0 1360 0 0 990 0 990 -1360 0 -1360 0 0 -990z
m1736 275 c-9 -65 -14 -121 -11 -125 9 -15 -7 -40 -25 -40 -26 0 -34 18 -22
43 11 22 33 149 26 156 -1 2 -30 -21 -62 -50 l-60 -53 61 -79 c33 -43 64 -80
69 -83 4 -3 8 -65 8 -138 l0 -134 -62 -5 c-45 -3 -67 -1 -78 9 -12 12 -12 16
2 30 11 11 21 13 34 7 11 -5 30 -8 44 -8 l25 0 -3 110 -4 110 -41 54 c-23 29
-55 71 -72 93 l-30 40 60 53 c35 32 66 52 75 49 8 -3 11 -2 7 2 -4 4 9 25 30
46 20 21 38 36 40 34 2 -2 -3 -56 -11 -121z m-691 95 c-3 -5 0 -12 6 -16 8 -4
9 -3 5 4 -4 7 -4 12 -1 12 8 0 185 -153 185 -160 0 -3 -32 -45 -70 -95 -39
-49 -73 -98 -76 -110 -3 -11 -4 -60 -2 -110 3 -99 -3 -92 73 -83 26 3 30 0 30
-22 0 -17 -5 -25 -17 -24 -10 0 -40 1 -68 2 l-50 2 0 131 0 130 65 84 c64 82
74 100 56 107 -5 2 -30 23 -56 47 -25 24 -48 41 -50 39 -7 -7 15 -141 25 -153
16 -19 0 -46 -24 -43 -18 3 -21 10 -23 63 -1 33 -6 89 -12 125 -13 81 -14 93
-1 85 6 -4 8 -10 5 -15z m492 -247 l52 -68 -91 -92 -91 -93 6 -60 c5 -62 -7
-88 -38 -77 -11 5 -13 19 -9 69 l6 63 -43 45 c-23 25 -64 68 -90 95 l-49 51
51 67 52 67 96 0 97 0 51 -67z m-350 -200 c4 -10 26 -42 50 -71 30 -38 43 -63
43 -85 0 -57 11 -76 61 -107 l49 -30 47 28 c46 27 48 31 58 88 7 44 19 72 45
104 19 24 40 53 45 65 13 24 48 27 53 4 2 -9 -20 -40 -47 -69 -32 -33 -52 -64
-55 -84 -17 -111 -12 -102 -82 -141 l-66 -36 -69 41 c-58 34 -69 45 -69 68 0
74 -13 103 -67 158 -45 45 -52 58 -43 70 17 19 39 18 47 -3z"/>
<path d="M1271 1093 l-33 -45 57 -57 57 -56 -27 54 c-28 56 -27 69 1 139 13
30 -24 7 -55 -35z"/>
<path d="M1341 1098 l-18 -43 31 -62 c16 -35 33 -63 37 -63 3 0 18 29 33 64
26 62 27 64 10 105 -14 35 -20 41 -45 41 -25 0 -33 -6 -48 -42z"/>
<path d="M1450 1135 c0 -2 7 -22 16 -44 15 -38 14 -41 -11 -91 -14 -29 -25
-54 -23 -56 2 -2 28 21 57 50 l54 54 -38 46 c-33 40 -55 57 -55 41z"/>
</g>
</svg>
