<?xml version="1.0" standalone="no"?>
<!DOCTYPE svg PUBLIC "-//W3C//DTD SVG 20010904//EN"
 "http://www.w3.org/TR/2001/REC-SVG-20010904/DTD/svg10.dtd">
<svg version="1.0" xmlns="http://www.w3.org/2000/svg"
 width="180.000000pt" height="149.000000pt" viewBox="0 0 180.000000 149.000000"
 preserveAspectRatio="xMidYMid meet">
<metadata>
Created by potrace 1.10, written by Peter Selinger 2001-2011
</metadata>
<g transform="translate(0.000000,149.000000) scale(0.100000,-0.100000)"
fill="#000000" stroke="none">
<path d="M653 1291 c2 -10 11 -26 20 -36 10 -10 16 -24 12 -33 -3 -8 0 -21 6
-28 15 -18 9 -18 -29 2 -24 12 -36 13 -52 4 -26 -14 -13 -34 26 -44 73 -19
126 81 71 132 -29 27 -58 29 -54 3z"/>
<path d="M596 1281 c-10 -11 -16 -28 -13 -38 4 -17 5 -17 6 1 0 11 8 28 18 38
9 10 14 18 11 18 -3 0 -13 -9 -22 -19z"/>
<path d="M843 1251 c-35 -22 -42 -38 -42 -96 1 -31 6 -44 25 -58 28 -21 55
-19 62 3 5 13 3 13 -12 1 -15 -12 -19 -12 -33 1 -18 19 -10 38 18 38 10 0 19
5 19 10 0 15 -21 12 -42 -7 -15 -13 -18 -13 -18 -2 0 23 50 47 105 50 48 4 50
3 53 -24 3 -26 2 -28 -18 -17 -19 10 -24 8 -37 -10 -10 -15 -19 -18 -25 -12
-12 12 -38 5 -38 -10 0 -6 6 -8 14 -5 8 3 26 -3 39 -14 14 -10 31 -19 39 -19
22 0 44 34 52 78 6 39 4 45 -29 77 -40 41 -82 46 -132 16z m122 -135 c0 -22
-14 -29 -34 -17 -19 12 -6 43 16 39 10 -2 18 -12 18 -22z"/>
<path d="M1096 1159 c-17 -14 -26 -30 -26 -50 0 -27 -3 -29 -38 -29 -26 0 -41
-6 -50 -20 -12 -19 -10 -20 54 -20 47 0 63 -3 58 -12 -5 -8 0 -9 17 -4 13 5
65 10 115 13 131 8 124 23 124 -266 0 -218 -2 -239 -18 -254 -17 -15 -61 -17
-431 -17 -265 0 -419 4 -432 10 -15 8 -19 21 -19 59 0 44 3 50 30 61 50 21 79
86 59 137 -14 38 -48 73 -71 73 -22 0 -24 -16 -3 -24 31 -11 14 -26 -29 -25
-34 2 -43 6 -41 18 2 9 4 22 4 29 1 6 12 12 26 12 25 0 25 1 25 85 0 73 3 86
19 95 12 6 92 10 191 10 153 0 171 2 166 16 -3 9 -6 18 -6 20 0 2 -87 4 -194
4 l-195 0 -20 -26 c-18 -23 -21 -41 -21 -120 0 -85 -2 -93 -21 -99 -29 -10
-59 -64 -59 -109 0 -33 7 -45 40 -77 40 -38 40 -39 40 -114 l0 -75 -41 0 c-41
0 -78 -14 -91 -34 -16 -23 -8 -67 17 -92 14 -14 25 -29 25 -34 0 -25 33 -38
96 -39 84 -1 104 13 104 76 l0 43 170 0 170 0 0 -35 0 -35 58 0 58 0 -4 35 -4
35 209 0 c136 0 213 4 220 11 7 7 8 23 3 46 -7 31 -6 36 12 41 15 3 18 10 13
26 -29 95 -33 141 -10 132 13 -5 15 21 15 193 0 185 -1 200 -21 225 -19 24
-26 26 -100 26 l-79 0 0 29 c0 32 -39 71 -70 71 -10 0 -29 -9 -44 -21z m54
-55 c0 -8 -10 -12 -27 -10 -36 5 -35 4 -29 15 9 14 56 10 56 -5z m32 1 c0 -5
-5 -11 -11 -13 -6 -2 -11 4 -11 13 0 9 5 15 11 13 6 -2 11 -8 11 -13z m18 -32
c0 -7 -12 -15 -27 -18 -16 -4 -37 -8 -47 -10 -22 -5 -46 11 -46 29 0 7 22 11
60 11 41 0 60 -4 60 -12z m-740 -318 c0 -13 4 -14 20 -5 18 9 20 8 20 -15 0
-26 -14 -33 -26 -13 -5 7 -10 4 -15 -10 -7 -18 -16 -22 -49 -22 l-40 0 0 40 0
40 45 0 c34 0 45 -4 45 -15z m38 -74 c11 -6 8 -13 -13 -29 -37 -29 -61 -35
-85 -22 -30 16 -20 34 23 41 21 3 40 9 44 12 8 9 15 9 31 -2z m857 -223 c-4
-18 -13 -36 -19 -41 -16 -10 -325 -7 -332 4 -3 5 -2 18 1 29 6 19 15 20 158
20 84 0 159 5 167 10 26 17 32 11 25 -22z m-855 -27 c0 -22 -6 -44 -15 -51 -8
-7 -15 -27 -15 -45 0 -38 -12 -45 -80 -45 -56 0 -69 12 -65 60 2 19 4 45 4 58
1 15 7 22 20 22 11 0 26 6 34 14 8 8 34 16 58 19 24 2 47 4 52 5 4 1 7 -15 7
-37z m288 7 l3 -28 -120 0 c-65 0 -126 3 -135 6 -9 3 -16 17 -16 30 l0 25 133
-3 132 -3 3 -27z m186 14 c14 -23 -14 -33 -80 -30 -56 2 -69 6 -72 21 -3 15 6
17 72 17 41 0 77 -4 80 -8z m-674 -68 c0 -59 -24 -55 -28 4 -2 33 0 42 12 42
12 0 16 -11 16 -46z"/>
<path d="M281 1044 c-16 -12 -22 -23 -18 -41 3 -17 -3 -33 -19 -50 -13 -14
-21 -30 -18 -35 7 -12 44 20 44 39 0 8 11 13 29 13 52 0 68 48 26 76 -18 12
-24 11 -44 -2z m47 -28 c4 -21 -14 -37 -35 -29 -14 5 -18 35 -6 47 12 12 38 1
41 -18z"/>
<path d="M1447 1053 c-13 -12 -7 -23 12 -23 12 0 25 -11 33 -27 7 -15 26 -34
42 -41 25 -13 27 -18 21 -46 -8 -36 -8 -42 1 -77 5 -22 2 -27 -20 -33 -17 -4
-31 -18 -40 -41 -16 -38 -25 -41 -59 -24 l-22 11 22 -23 c19 -19 26 -21 47
-11 16 7 26 21 28 39 2 22 9 29 31 31 38 5 57 44 34 70 -10 10 -17 22 -17 27
0 5 7 17 17 27 23 26 4 65 -34 70 -21 2 -29 9 -31 28 -5 36 -45 63 -65 43z"/>
<path d="M853 1023 c18 -21 18 -21 -3 -28 -17 -5 -19 -10 -9 -21 6 -8 19 -13
28 -13 13 1 13 2 -1 6 -34 9 -17 18 29 16 62 -2 60 -2 43 -14 -12 -9 -11 -9 5
-4 11 4 29 7 40 7 14 0 10 4 -14 17 -21 11 -30 21 -22 25 6 4 11 12 11 18 0 6
-8 4 -18 -5 -24 -22 -51 -21 -82 0 -25 17 -25 17 -7 -4z"/>
<path d="M502 974 c4 -21 22 -23 26 -1 2 10 -3 17 -13 17 -10 0 -15 -6 -13
-16z"/>
<path d="M552 974 c4 -21 22 -23 26 -1 2 10 -3 17 -13 17 -10 0 -15 -6 -13
-16z"/>
<path d="M600 976 c0 -9 7 -16 16 -16 17 0 14 22 -4 28 -7 2 -12 -3 -12 -12z"/>
<path d="M1436 960 c28 -11 54 -48 54 -76 0 -13 -12 -36 -26 -53 -26 -31 -22
-41 7 -18 26 20 41 57 34 85 -9 36 -44 72 -69 71 -21 0 -21 0 0 -9z"/>
<path d="M720 940 c-20 -20 -28 -56 -10 -45 6 3 10 11 10 17 0 6 7 20 17 30
22 24 8 23 -17 -2z"/>
<path d="M1068 937 c12 -13 22 -31 22 -40 0 -9 5 -17 11 -17 13 0 2 39 -19 63
-8 9 -20 17 -25 17 -6 0 -1 -10 11 -23z"/>
<path d="M759 883 c-3 -24 -1 -43 4 -43 14 0 19 29 9 57 -9 27 -9 27 -13 -14z"/>
<path d="M1038 900 c-4 -8 -8 -26 -10 -40 -4 -21 0 -26 16 -25 12 0 27 4 34 8
7 5 19 6 27 3 9 -3 15 1 15 10 0 11 -5 14 -17 9 -47 -19 -51 -18 -55 17 -3 20
-6 27 -10 18z"/>
<path d="M687 874 c-14 -14 -6 -21 23 -20 16 1 30 4 30 9 0 4 -4 7 -9 7 -5 0
-16 2 -23 5 -8 3 -17 2 -21 -1z"/>
<path d="M1086 819 c5 -8 -1 -10 -18 -6 -40 10 -52 -12 -45 -88 9 -98 14 -95
-126 -95 l-120 0 6 80 c4 46 2 80 -3 80 -8 0 -13 -23 -24 -127 l-4 -43 150 0
151 0 -7 84 c-6 84 -6 84 17 78 12 -3 27 -12 33 -20 6 -9 18 -13 28 -9 22 9
20 24 -4 32 -11 3 -20 15 -20 26 0 10 -5 19 -11 19 -5 0 -7 -5 -3 -11z"/>
<path d="M734 805 c-10 -8 -29 -15 -41 -15 -25 0 -31 -18 -9 -26 15 -6 70 19
81 35 10 17 -11 21 -31 6z"/>
<path d="M1217 782 c-23 -25 -21 -58 3 -82 39 -39 100 -14 100 42 0 51 -69 78
-103 40z m62 -24 c10 -29 -15 -60 -30 -37 -10 17 -12 43 -2 52 12 13 24 7 32
-15z"/>
<path d="M1465 650 c-3 -4 -15 -6 -26 -3 -16 4 -20 2 -17 -8 2 -7 15 -14 29
-14 23 0 24 -2 22 -77 -1 -43 2 -78 6 -78 5 0 11 30 14 68 4 37 9 77 13 88 4
16 0 23 -15 27 -12 3 -23 1 -26 -3z"/>
<path d="M1531 637 c-6 -6 -11 -22 -11 -36 0 -21 2 -23 11 -11 7 11 8 3 3 -29
-3 -25 -13 -51 -21 -59 -12 -12 -12 -16 -1 -23 19 -12 25 -1 45 72 15 60 16
68 1 82 -11 12 -18 13 -27 4z"/>
<path d="M1427 565 c10 -77 24 -110 17 -40 -3 33 -10 67 -15 75 -5 9 -6 -5 -2
-35z"/>
<path d="M570 575 c0 -11 12 -15 50 -15 38 0 50 4 50 15 0 11 -12 15 -50 15
-38 0 -50 -4 -50 -15z"/>
<path d="M710 575 c0 -13 33 -15 257 -13 194 2 257 6 261 16 3 9 -53 12 -257
12 -227 0 -261 -2 -261 -15z"/>
<path d="M1271 577 c-1 -10 -11 -22 -23 -27 -16 -6 -18 -9 -7 -9 21 -1 43 24
36 41 -3 8 -6 6 -6 -5z"/>
<path d="M520 560 c0 -6 7 -13 15 -17 24 -9 27 1 5 15 -13 8 -20 8 -20 2z"/>
<path d="M1540 468 c0 -2 -2 -35 -4 -75 -6 -108 -10 -115 -59 -111 -39 3 -42
5 -54 47 -25 87 -42 72 -25 -23 l7 -38 68 0 c37 0 70 2 72 4 2 2 9 35 15 73 6
39 13 82 16 98 5 22 2 27 -15 27 -12 0 -21 -1 -21 -2z"/>
<path d="M544 281 c-17 -18 40 -21 371 -21 293 0 375 3 375 13 0 9 -81 12
-371 12 -204 0 -373 -2 -375 -4z"/>
<path d="M157 254 c-15 -15 -7 -63 12 -74 27 -14 1435 -14 1462 0 20 11 27 64
10 74 -13 8 -32 -19 -26 -37 5 -11 -3 -16 -27 -20 -39 -6 -1387 2 -1406 8 -7
3 -10 9 -7 15 8 12 -9 43 -18 34z"/>
</g>
</svg>
